<mxfile host="app.diagrams.net" agent="Mozilla/5.0 (Windows NT 10.0; Win64; x64) AppleWebKit/537.36 (KHTML, like Gecko) Chrome/130.0.0.0 Safari/537.36" version="24.8.0">
  <diagram name="第 1 页" id="FqXfnVC3W_Bs0LnpprSV">
    <mxGraphModel dx="1562" dy="891" grid="1" gridSize="10" guides="1" tooltips="1" connect="1" arrows="1" fold="1" page="1" pageScale="1" pageWidth="1169" pageHeight="827" math="0" shadow="0">
      <root>
        <mxCell id="0" />
        <mxCell id="1" parent="0" />
        <mxCell id="YGUKI9yoPXGlncxe4voU-1" value="&lt;font style=&quot;font-size: 18px;&quot;&gt;&lt;b&gt;CNN&lt;/b&gt;&lt;/font&gt;" style="rounded=0;whiteSpace=wrap;html=1;" vertex="1" parent="1">
          <mxGeometry x="200" y="440" width="80" height="40" as="geometry" />
        </mxCell>
        <mxCell id="YGUKI9yoPXGlncxe4voU-2" value="&lt;font style=&quot;font-size: 18px;&quot;&gt;&lt;b&gt;RNN&lt;/b&gt;&lt;/font&gt;" style="rounded=0;whiteSpace=wrap;html=1;" vertex="1" parent="1">
          <mxGeometry x="200" y="340" width="80" height="40" as="geometry" />
        </mxCell>
        <mxCell id="YGUKI9yoPXGlncxe4voU-3" value="&lt;font style=&quot;font-size: 18px;&quot;&gt;&lt;b&gt;Kalman&lt;/b&gt;&lt;/font&gt;" style="rounded=0;whiteSpace=wrap;html=1;" vertex="1" parent="1">
          <mxGeometry x="200" y="240" width="80" height="40" as="geometry" />
        </mxCell>
        <mxCell id="YGUKI9yoPXGlncxe4voU-4" value="&lt;font style=&quot;font-size: 18px;&quot;&gt;&lt;b&gt;Gain&lt;/b&gt;&lt;/font&gt;" style="rounded=0;whiteSpace=wrap;html=1;" vertex="1" parent="1">
          <mxGeometry x="200" y="140" width="80" height="40" as="geometry" />
        </mxCell>
        <mxCell id="YGUKI9yoPXGlncxe4voU-5" value="&lt;font style=&quot;font-size: 18px;&quot;&gt;&lt;b&gt;RNN&lt;/b&gt;&lt;/font&gt;" style="rounded=0;whiteSpace=wrap;html=1;" vertex="1" parent="1">
          <mxGeometry x="360" y="240" width="80" height="40" as="geometry" />
        </mxCell>
        <mxCell id="YGUKI9yoPXGlncxe4voU-6" value="&lt;font style=&quot;font-size: 18px;&quot;&gt;&lt;b&gt;RNN&lt;/b&gt;&lt;/font&gt;" style="rounded=0;whiteSpace=wrap;html=1;" vertex="1" parent="1">
          <mxGeometry x="520" y="240" width="80" height="40" as="geometry" />
        </mxCell>
        <mxCell id="YGUKI9yoPXGlncxe4voU-7" value="&lt;font style=&quot;font-size: 18px;&quot;&gt;&lt;b&gt;Gain&lt;/b&gt;&lt;/font&gt;" style="rounded=0;whiteSpace=wrap;html=1;" vertex="1" parent="1">
          <mxGeometry x="680" y="140" width="80" height="40" as="geometry" />
        </mxCell>
        <mxCell id="YGUKI9yoPXGlncxe4voU-8" value="&lt;font style=&quot;font-size: 18px;&quot;&gt;&lt;b&gt;Kalman&lt;/b&gt;&lt;/font&gt;" style="rounded=0;whiteSpace=wrap;html=1;" vertex="1" parent="1">
          <mxGeometry x="680" y="240" width="80" height="40" as="geometry" />
        </mxCell>
        <mxCell id="YGUKI9yoPXGlncxe4voU-9" value="&lt;font style=&quot;font-size: 18px;&quot;&gt;&lt;b&gt;RNN&lt;/b&gt;&lt;/font&gt;" style="rounded=0;whiteSpace=wrap;html=1;" vertex="1" parent="1">
          <mxGeometry x="680" y="340" width="80" height="40" as="geometry" />
        </mxCell>
        <mxCell id="YGUKI9yoPXGlncxe4voU-10" value="&lt;font style=&quot;font-size: 18px;&quot;&gt;&lt;b&gt;CNN&lt;/b&gt;&lt;/font&gt;" style="rounded=0;whiteSpace=wrap;html=1;" vertex="1" parent="1">
          <mxGeometry x="680" y="440" width="80" height="40" as="geometry" />
        </mxCell>
        <mxCell id="YGUKI9yoPXGlncxe4voU-11" value="" style="endArrow=classic;html=1;rounded=0;entryX=0;entryY=0.25;entryDx=0;entryDy=0;" edge="1" parent="1" target="YGUKI9yoPXGlncxe4voU-3">
          <mxGeometry width="50" height="50" relative="1" as="geometry">
            <mxPoint x="130" y="250" as="sourcePoint" />
            <mxPoint x="180" y="200" as="targetPoint" />
          </mxGeometry>
        </mxCell>
        <mxCell id="YGUKI9yoPXGlncxe4voU-12" value="" style="endArrow=classic;html=1;rounded=0;entryX=0;entryY=0.25;entryDx=0;entryDy=0;" edge="1" parent="1">
          <mxGeometry width="50" height="50" relative="1" as="geometry">
            <mxPoint x="130" y="270" as="sourcePoint" />
            <mxPoint x="200" y="270" as="targetPoint" />
          </mxGeometry>
        </mxCell>
        <mxCell id="YGUKI9yoPXGlncxe4voU-13" value="" style="endArrow=classic;html=1;rounded=0;entryX=0;entryY=0.5;entryDx=0;entryDy=0;" edge="1" parent="1" target="YGUKI9yoPXGlncxe4voU-5">
          <mxGeometry width="50" height="50" relative="1" as="geometry">
            <mxPoint x="280" y="260" as="sourcePoint" />
            <mxPoint x="330" y="210" as="targetPoint" />
          </mxGeometry>
        </mxCell>
        <mxCell id="YGUKI9yoPXGlncxe4voU-14" value="" style="endArrow=classic;html=1;rounded=0;" edge="1" parent="1">
          <mxGeometry width="50" height="50" relative="1" as="geometry">
            <mxPoint x="240" y="240" as="sourcePoint" />
            <mxPoint x="240" y="180" as="targetPoint" />
          </mxGeometry>
        </mxCell>
        <mxCell id="YGUKI9yoPXGlncxe4voU-15" value="" style="endArrow=classic;html=1;rounded=0;entryX=0.5;entryY=1;entryDx=0;entryDy=0;" edge="1" parent="1" target="YGUKI9yoPXGlncxe4voU-3">
          <mxGeometry width="50" height="50" relative="1" as="geometry">
            <mxPoint x="240" y="340" as="sourcePoint" />
            <mxPoint x="290" y="310" as="targetPoint" />
          </mxGeometry>
        </mxCell>
        <mxCell id="YGUKI9yoPXGlncxe4voU-16" value="" style="endArrow=classic;html=1;rounded=0;entryX=0.5;entryY=1;entryDx=0;entryDy=0;" edge="1" parent="1" target="YGUKI9yoPXGlncxe4voU-2">
          <mxGeometry width="50" height="50" relative="1" as="geometry">
            <mxPoint x="240" y="440" as="sourcePoint" />
            <mxPoint x="290" y="430" as="targetPoint" />
          </mxGeometry>
        </mxCell>
        <mxCell id="YGUKI9yoPXGlncxe4voU-18" value="" style="endArrow=classic;html=1;rounded=0;entryX=0;entryY=0.5;entryDx=0;entryDy=0;" edge="1" parent="1" target="YGUKI9yoPXGlncxe4voU-6">
          <mxGeometry width="50" height="50" relative="1" as="geometry">
            <mxPoint x="440" y="260" as="sourcePoint" />
            <mxPoint x="490" y="210" as="targetPoint" />
          </mxGeometry>
        </mxCell>
        <mxCell id="YGUKI9yoPXGlncxe4voU-19" value="" style="endArrow=classic;html=1;rounded=0;" edge="1" parent="1">
          <mxGeometry width="50" height="50" relative="1" as="geometry">
            <mxPoint x="240" y="140" as="sourcePoint" />
            <mxPoint x="240" y="100" as="targetPoint" />
          </mxGeometry>
        </mxCell>
        <mxCell id="YGUKI9yoPXGlncxe4voU-20" value="" style="endArrow=classic;html=1;rounded=0;entryX=0.5;entryY=0;entryDx=0;entryDy=0;" edge="1" parent="1" target="YGUKI9yoPXGlncxe4voU-5">
          <mxGeometry width="50" height="50" relative="1" as="geometry">
            <mxPoint x="400" y="200" as="sourcePoint" />
            <mxPoint x="450" y="150" as="targetPoint" />
          </mxGeometry>
        </mxCell>
        <mxCell id="YGUKI9yoPXGlncxe4voU-21" value="" style="endArrow=classic;html=1;rounded=0;entryX=0.5;entryY=1;entryDx=0;entryDy=0;" edge="1" parent="1" target="YGUKI9yoPXGlncxe4voU-1">
          <mxGeometry width="50" height="50" relative="1" as="geometry">
            <mxPoint x="240" y="520" as="sourcePoint" />
            <mxPoint x="290" y="470" as="targetPoint" />
          </mxGeometry>
        </mxCell>
        <mxCell id="YGUKI9yoPXGlncxe4voU-22" value="" style="endArrow=classic;html=1;rounded=0;entryX=0.25;entryY=1;entryDx=0;entryDy=0;" edge="1" parent="1" target="YGUKI9yoPXGlncxe4voU-3">
          <mxGeometry width="50" height="50" relative="1" as="geometry">
            <mxPoint x="240" y="420" as="sourcePoint" />
            <mxPoint x="190" y="300" as="targetPoint" />
            <Array as="points">
              <mxPoint x="190" y="420" />
              <mxPoint x="190" y="310" />
              <mxPoint x="220" y="310" />
            </Array>
          </mxGeometry>
        </mxCell>
        <mxCell id="YGUKI9yoPXGlncxe4voU-23" value="" style="endArrow=classic;html=1;rounded=0;entryX=0;entryY=0.5;entryDx=0;entryDy=0;" edge="1" parent="1" target="YGUKI9yoPXGlncxe4voU-8">
          <mxGeometry width="50" height="50" relative="1" as="geometry">
            <mxPoint x="600" y="260" as="sourcePoint" />
            <mxPoint x="650" y="210" as="targetPoint" />
          </mxGeometry>
        </mxCell>
        <mxCell id="YGUKI9yoPXGlncxe4voU-24" value="" style="endArrow=classic;html=1;rounded=0;entryX=0;entryY=0.75;entryDx=0;entryDy=0;" edge="1" parent="1" target="YGUKI9yoPXGlncxe4voU-8">
          <mxGeometry width="50" height="50" relative="1" as="geometry">
            <mxPoint x="490" y="260" as="sourcePoint" />
            <mxPoint x="560" y="310" as="targetPoint" />
            <Array as="points">
              <mxPoint x="490" y="300" />
              <mxPoint x="640" y="300" />
              <mxPoint x="640" y="270" />
            </Array>
          </mxGeometry>
        </mxCell>
        <mxCell id="YGUKI9yoPXGlncxe4voU-25" value="" style="endArrow=classic;html=1;rounded=0;entryX=0.25;entryY=1;entryDx=0;entryDy=0;" edge="1" parent="1">
          <mxGeometry width="50" height="50" relative="1" as="geometry">
            <mxPoint x="720" y="420" as="sourcePoint" />
            <mxPoint x="700" y="280" as="targetPoint" />
            <Array as="points">
              <mxPoint x="670" y="420" />
              <mxPoint x="670" y="310" />
              <mxPoint x="700" y="310" />
            </Array>
          </mxGeometry>
        </mxCell>
        <mxCell id="YGUKI9yoPXGlncxe4voU-26" value="" style="endArrow=classic;html=1;rounded=0;entryX=0.5;entryY=1;entryDx=0;entryDy=0;" edge="1" parent="1" target="YGUKI9yoPXGlncxe4voU-10">
          <mxGeometry width="50" height="50" relative="1" as="geometry">
            <mxPoint x="720" y="520" as="sourcePoint" />
            <mxPoint x="770" y="470" as="targetPoint" />
          </mxGeometry>
        </mxCell>
        <mxCell id="YGUKI9yoPXGlncxe4voU-27" value="" style="endArrow=classic;html=1;rounded=0;exitX=0.5;exitY=0;exitDx=0;exitDy=0;entryX=0.5;entryY=1;entryDx=0;entryDy=0;" edge="1" parent="1" source="YGUKI9yoPXGlncxe4voU-10" target="YGUKI9yoPXGlncxe4voU-9">
          <mxGeometry width="50" height="50" relative="1" as="geometry">
            <mxPoint x="790" y="420" as="sourcePoint" />
            <mxPoint x="840" y="370" as="targetPoint" />
          </mxGeometry>
        </mxCell>
        <mxCell id="YGUKI9yoPXGlncxe4voU-28" value="" style="endArrow=classic;html=1;rounded=0;entryX=0.5;entryY=1;entryDx=0;entryDy=0;" edge="1" parent="1" target="YGUKI9yoPXGlncxe4voU-8">
          <mxGeometry width="50" height="50" relative="1" as="geometry">
            <mxPoint x="720" y="340" as="sourcePoint" />
            <mxPoint x="770" y="290" as="targetPoint" />
          </mxGeometry>
        </mxCell>
        <mxCell id="YGUKI9yoPXGlncxe4voU-29" value="" style="endArrow=classic;html=1;rounded=0;entryX=0.5;entryY=1;entryDx=0;entryDy=0;" edge="1" parent="1" target="YGUKI9yoPXGlncxe4voU-7">
          <mxGeometry width="50" height="50" relative="1" as="geometry">
            <mxPoint x="720" y="240" as="sourcePoint" />
            <mxPoint x="770" y="190" as="targetPoint" />
          </mxGeometry>
        </mxCell>
        <mxCell id="YGUKI9yoPXGlncxe4voU-30" value="" style="endArrow=classic;html=1;rounded=0;" edge="1" parent="1">
          <mxGeometry width="50" height="50" relative="1" as="geometry">
            <mxPoint x="720" y="140" as="sourcePoint" />
            <mxPoint x="720" y="100" as="targetPoint" />
          </mxGeometry>
        </mxCell>
        <mxCell id="YGUKI9yoPXGlncxe4voU-31" value="&lt;font face=&quot;Helvetica&quot; style=&quot;font-size: 16px;&quot;&gt;u&lt;sub style=&quot;&quot;&gt;(k)&lt;/sub&gt;&lt;/font&gt;" style="text;html=1;align=center;verticalAlign=middle;whiteSpace=wrap;rounded=0;" vertex="1" parent="1">
          <mxGeometry x="240" y="100" width="60" height="30" as="geometry" />
        </mxCell>
        <mxCell id="YGUKI9yoPXGlncxe4voU-32" value="&lt;font face=&quot;Helvetica&quot; style=&quot;font-size: 16px;&quot;&gt;u(k)&lt;/font&gt;" style="text;html=1;align=center;verticalAlign=middle;whiteSpace=wrap;rounded=0;" vertex="1" parent="1">
          <mxGeometry x="390" y="200" width="60" height="30" as="geometry" />
        </mxCell>
        <mxCell id="YGUKI9yoPXGlncxe4voU-33" value="&lt;font style=&quot;font-size: 16px;&quot;&gt;Q&lt;sub style=&quot;&quot;&gt;matrix&lt;/sub&gt;&lt;/font&gt;" style="text;html=1;align=center;verticalAlign=middle;whiteSpace=wrap;rounded=0;" vertex="1" parent="1">
          <mxGeometry x="130" y="220" width="60" height="30" as="geometry" />
        </mxCell>
        <mxCell id="YGUKI9yoPXGlncxe4voU-34" value="&lt;font style=&quot;font-size: 16px;&quot;&gt;Q&lt;sub style=&quot;&quot;&gt;matrix&lt;/sub&gt;&lt;/font&gt;" style="text;html=1;align=center;verticalAlign=middle;whiteSpace=wrap;rounded=0;" vertex="1" parent="1">
          <mxGeometry x="610" y="230" width="60" height="30" as="geometry" />
        </mxCell>
        <mxCell id="YGUKI9yoPXGlncxe4voU-35" value="&lt;span class=&quot;katex-mathml&quot;&gt;&lt;math xmlns=&quot;http://www.w3.org/1998/Math/MathML&quot;&gt;&lt;mrow&gt;&lt;msub&gt;&lt;mover accent=&quot;true&quot;&gt;&lt;mi&gt;&lt;font style=&quot;&quot;&gt;&lt;strong style=&quot;&quot;&gt;&lt;span style=&quot;&quot; class=&quot;katex&quot;&gt;&lt;span style=&quot;&quot; class=&quot;katex-mathml&quot;&gt;&lt;math xmlns=&quot;http://www.w3.org/1998/Math/MathML&quot;&gt;&lt;mrow&gt;&lt;mover accent=&quot;true&quot;&gt;&lt;mi&gt;&lt;font style=&quot;font-size: 18px;&quot; face=&quot;Helvetica&quot;&gt;&lt;strong style=&quot;font-size: 16px;&quot;&gt;&lt;span style=&quot;&quot; class=&quot;katex&quot;&gt;&lt;span style=&quot;&quot; class=&quot;katex-mathml&quot;&gt;&lt;math xmlns=&quot;http://www.w3.org/1998/Math/MathML&quot;&gt;&lt;mrow&gt;&lt;mover accent=&quot;true&quot;&gt;&lt;mi&gt;x&lt;/mi&gt;&lt;mo&gt;^&lt;/mo&gt;&lt;/mover&gt;&lt;/mrow&gt;\hat{x}&lt;/math&gt;&lt;/span&gt;&lt;sub style=&quot;&quot;&gt;k|k-1&lt;/sub&gt;&lt;/span&gt;&lt;/strong&gt;&lt;/font&gt;&lt;/mi&gt;&lt;/mover&gt;&lt;/mrow&gt;&lt;/math&gt;&lt;/span&gt;&lt;/span&gt;&lt;/strong&gt;&lt;/font&gt;&lt;/mi&gt;&lt;/mover&gt;&lt;/msub&gt;&lt;/mrow&gt;\hat{x}_{k|k-1}&lt;/math&gt;&lt;/span&gt;" style="text;html=1;align=center;verticalAlign=middle;whiteSpace=wrap;rounded=0;" vertex="1" parent="1">
          <mxGeometry x="240" y="190" width="60" height="40" as="geometry" />
        </mxCell>
        <mxCell id="YGUKI9yoPXGlncxe4voU-37" value="&lt;span class=&quot;katex-mathml&quot;&gt;&lt;math xmlns=&quot;http://www.w3.org/1998/Math/MathML&quot;&gt;&lt;mrow&gt;&lt;msub&gt;&lt;mover accent=&quot;true&quot;&gt;&lt;mi&gt;&lt;font style=&quot;&quot;&gt;&lt;strong style=&quot;&quot;&gt;&lt;span style=&quot;&quot; class=&quot;katex&quot;&gt;&lt;span style=&quot;&quot; class=&quot;katex-mathml&quot;&gt;&lt;math xmlns=&quot;http://www.w3.org/1998/Math/MathML&quot;&gt;&lt;mrow&gt;&lt;mover accent=&quot;true&quot;&gt;&lt;mi&gt;&lt;font style=&quot;font-size: 14px;&quot; face=&quot;Helvetica&quot;&gt;&lt;strong style=&quot;font-size: 16px;&quot;&gt;&lt;span style=&quot;&quot; class=&quot;katex&quot;&gt;&lt;span style=&quot;&quot; class=&quot;katex-mathml&quot;&gt;&lt;math xmlns=&quot;http://www.w3.org/1998/Math/MathML&quot;&gt;&lt;mrow&gt;&lt;mover accent=&quot;true&quot;&gt;&lt;mi&gt;x&lt;/mi&gt;&lt;mo&gt;^&lt;/mo&gt;&lt;/mover&gt;&lt;/mrow&gt;\hat{x}&lt;/math&gt;&lt;/span&gt;&lt;sub style=&quot;&quot;&gt;k|k-1&lt;/sub&gt;&lt;/span&gt;&lt;/strong&gt;&lt;/font&gt;&lt;/mi&gt;&lt;/mover&gt;&lt;/mrow&gt;&lt;/math&gt;&lt;/span&gt;&lt;/span&gt;&lt;/strong&gt;&lt;/font&gt;&lt;/mi&gt;&lt;/mover&gt;&lt;/msub&gt;&lt;/mrow&gt;\hat{x}_{k|k-1}&lt;/math&gt;&lt;/span&gt;" style="text;html=1;align=center;verticalAlign=middle;whiteSpace=wrap;rounded=0;" vertex="1" parent="1">
          <mxGeometry x="290" y="230" width="60" height="40" as="geometry" />
        </mxCell>
        <mxCell id="YGUKI9yoPXGlncxe4voU-38" value="&lt;span class=&quot;katex-mathml&quot;&gt;&lt;math xmlns=&quot;http://www.w3.org/1998/Math/MathML&quot;&gt;&lt;mrow&gt;&lt;msub&gt;&lt;mover accent=&quot;true&quot;&gt;&lt;mi&gt;&lt;font style=&quot;&quot;&gt;&lt;strong style=&quot;&quot;&gt;&lt;span style=&quot;&quot; class=&quot;katex&quot;&gt;&lt;span style=&quot;&quot; class=&quot;katex-mathml&quot;&gt;&lt;math xmlns=&quot;http://www.w3.org/1998/Math/MathML&quot;&gt;&lt;mrow&gt;&lt;mover accent=&quot;true&quot;&gt;&lt;mi&gt;&lt;font style=&quot;font-size: 14px;&quot; face=&quot;Helvetica&quot;&gt;&lt;strong style=&quot;font-size: 16px;&quot;&gt;&lt;span style=&quot;&quot; class=&quot;katex&quot;&gt;&lt;span style=&quot;&quot; class=&quot;katex-mathml&quot;&gt;&lt;math xmlns=&quot;http://www.w3.org/1998/Math/MathML&quot;&gt;&lt;mrow&gt;&lt;mover accent=&quot;true&quot;&gt;&lt;mi&gt;x&lt;/mi&gt;&lt;mo&gt;^&lt;/mo&gt;&lt;/mover&gt;&lt;/mrow&gt;\hat{x}&lt;/math&gt;&lt;/span&gt;&lt;sub style=&quot;&quot;&gt;k&lt;/sub&gt;&lt;/span&gt;&lt;/strong&gt;&lt;/font&gt;&lt;/mi&gt;&lt;/mover&gt;&lt;/mrow&gt;&lt;/math&gt;&lt;/span&gt;&lt;/span&gt;&lt;/strong&gt;&lt;/font&gt;&lt;/mi&gt;&lt;/mover&gt;&lt;/msub&gt;&lt;/mrow&gt;\hat{x}_{k|k-1}&lt;/math&gt;&lt;/span&gt;" style="text;html=1;align=center;verticalAlign=middle;whiteSpace=wrap;rounded=0;" vertex="1" parent="1">
          <mxGeometry x="450" y="230" width="60" height="40" as="geometry" />
        </mxCell>
        <mxCell id="YGUKI9yoPXGlncxe4voU-39" value="&lt;span class=&quot;katex-mathml&quot;&gt;&lt;math xmlns=&quot;http://www.w3.org/1998/Math/MathML&quot;&gt;&lt;mrow&gt;&lt;msub&gt;&lt;mover accent=&quot;true&quot;&gt;&lt;mi&gt;&lt;font style=&quot;&quot;&gt;&lt;strong style=&quot;&quot;&gt;&lt;span style=&quot;&quot; class=&quot;katex&quot;&gt;&lt;span style=&quot;&quot; class=&quot;katex-mathml&quot;&gt;&lt;math xmlns=&quot;http://www.w3.org/1998/Math/MathML&quot;&gt;&lt;mrow&gt;&lt;mover accent=&quot;true&quot;&gt;&lt;mi&gt;&lt;font style=&quot;font-size: 14px;&quot; face=&quot;Helvetica&quot;&gt;&lt;strong style=&quot;font-size: 16px;&quot;&gt;&lt;span style=&quot;&quot; class=&quot;katex&quot;&gt;&lt;span style=&quot;&quot; class=&quot;katex-mathml&quot;&gt;&lt;math xmlns=&quot;http://www.w3.org/1998/Math/MathML&quot;&gt;&lt;mrow&gt;&lt;mover accent=&quot;true&quot;&gt;&lt;mi&gt;x&lt;/mi&gt;&lt;mo&gt;^&lt;/mo&gt;&lt;/mover&gt;&lt;/mrow&gt;\hat{x}&lt;/math&gt;&lt;/span&gt;&lt;sub style=&quot;&quot;&gt;k+1|k&lt;/sub&gt;&lt;/span&gt;&lt;/strong&gt;&lt;/font&gt;&lt;/mi&gt;&lt;/mover&gt;&lt;/mrow&gt;&lt;/math&gt;&lt;/span&gt;&lt;/span&gt;&lt;/strong&gt;&lt;/font&gt;&lt;/mi&gt;&lt;/mover&gt;&lt;/msub&gt;&lt;/mrow&gt;\hat{x}_{k|k-1}&lt;/math&gt;&lt;/span&gt;" style="text;html=1;align=center;verticalAlign=middle;whiteSpace=wrap;rounded=0;" vertex="1" parent="1">
          <mxGeometry x="720" y="195" width="60" height="40" as="geometry" />
        </mxCell>
        <mxCell id="YGUKI9yoPXGlncxe4voU-40" value="&lt;font style=&quot;font-size: 16px;&quot;&gt;y(k)&lt;/font&gt;" style="text;html=1;align=center;verticalAlign=middle;whiteSpace=wrap;rounded=0;" vertex="1" parent="1">
          <mxGeometry x="230" y="399" width="60" height="30" as="geometry" />
        </mxCell>
        <mxCell id="YGUKI9yoPXGlncxe4voU-41" value="&lt;font style=&quot;&quot;&gt;&lt;sub style=&quot;font-size: 16px;&quot;&gt;&lt;span style=&quot;&quot;&gt;R&lt;sub&gt;matrix&lt;/sub&gt;&lt;/span&gt;&lt;/sub&gt;&lt;/font&gt;" style="text;html=1;align=center;verticalAlign=middle;whiteSpace=wrap;rounded=0;" vertex="1" parent="1">
          <mxGeometry x="240" y="300" width="60" height="30" as="geometry" />
        </mxCell>
        <mxCell id="YGUKI9yoPXGlncxe4voU-42" value="&lt;span class=&quot;katex-mathml&quot;&gt;&lt;math xmlns=&quot;http://www.w3.org/1998/Math/MathML&quot;&gt;&lt;mrow&gt;&lt;msub&gt;&lt;mover accent=&quot;true&quot;&gt;&lt;mi&gt;&lt;font style=&quot;&quot;&gt;&lt;strong style=&quot;&quot;&gt;&lt;span style=&quot;&quot; class=&quot;katex&quot;&gt;&lt;span style=&quot;&quot; class=&quot;katex-mathml&quot;&gt;&lt;math xmlns=&quot;http://www.w3.org/1998/Math/MathML&quot;&gt;&lt;mrow&gt;&lt;mover accent=&quot;true&quot;&gt;&lt;mi&gt;&lt;font style=&quot;font-size: 18px;&quot; face=&quot;Helvetica&quot;&gt;&lt;strong style=&quot;font-size: 16px;&quot;&gt;&lt;span style=&quot;&quot; class=&quot;katex&quot;&gt;&lt;span style=&quot;&quot; class=&quot;katex-mathml&quot;&gt;&lt;math xmlns=&quot;http://www.w3.org/1998/Math/MathML&quot;&gt;&lt;mrow&gt;&lt;mover accent=&quot;true&quot;&gt;&lt;mi&gt;x&lt;/mi&gt;&lt;mo&gt;^&lt;/mo&gt;&lt;/mover&gt;&lt;/mrow&gt;\hat{x}&lt;/math&gt;&lt;/span&gt;&lt;sub style=&quot;&quot;&gt;k-1&lt;/sub&gt;&lt;/span&gt;&lt;/strong&gt;&lt;/font&gt;&lt;/mi&gt;&lt;/mover&gt;&lt;/mrow&gt;&lt;/math&gt;&lt;/span&gt;&lt;/span&gt;&lt;/strong&gt;&lt;/font&gt;&lt;/mi&gt;&lt;/mover&gt;&lt;/msub&gt;&lt;/mrow&gt;\hat{x}_{k|k-1}&lt;/math&gt;&lt;/span&gt;" style="text;html=1;align=center;verticalAlign=middle;whiteSpace=wrap;rounded=0;" vertex="1" parent="1">
          <mxGeometry x="120" y="270" width="60" height="40" as="geometry" />
        </mxCell>
        <mxCell id="YGUKI9yoPXGlncxe4voU-43" value="" style="endArrow=classic;html=1;rounded=0;" edge="1" parent="1">
          <mxGeometry width="50" height="50" relative="1" as="geometry">
            <mxPoint x="760" y="260" as="sourcePoint" />
            <mxPoint x="800" y="260" as="targetPoint" />
          </mxGeometry>
        </mxCell>
        <mxCell id="YGUKI9yoPXGlncxe4voU-45" value="&lt;font style=&quot;font-size: 16px;&quot;&gt;y(k+1)&lt;/font&gt;" style="text;html=1;align=center;verticalAlign=middle;whiteSpace=wrap;rounded=0;" vertex="1" parent="1">
          <mxGeometry x="720" y="399" width="60" height="30" as="geometry" />
        </mxCell>
        <mxCell id="YGUKI9yoPXGlncxe4voU-46" value="&lt;font face=&quot;Helvetica&quot; style=&quot;font-size: 16px;&quot;&gt;u&lt;sub style=&quot;&quot;&gt;(k+1)&lt;/sub&gt;&lt;/font&gt;" style="text;html=1;align=center;verticalAlign=middle;whiteSpace=wrap;rounded=0;" vertex="1" parent="1">
          <mxGeometry x="720" y="100" width="60" height="30" as="geometry" />
        </mxCell>
        <mxCell id="YGUKI9yoPXGlncxe4voU-47" value="&lt;font style=&quot;&quot;&gt;&lt;sub style=&quot;font-size: 16px;&quot;&gt;&lt;span style=&quot;&quot;&gt;R&lt;sub&gt;matrix&lt;/sub&gt;&lt;/span&gt;&lt;/sub&gt;&lt;/font&gt;" style="text;html=1;align=center;verticalAlign=middle;whiteSpace=wrap;rounded=0;" vertex="1" parent="1">
          <mxGeometry x="720" y="300" width="60" height="30" as="geometry" />
        </mxCell>
        <mxCell id="YGUKI9yoPXGlncxe4voU-49" value="&lt;font style=&quot;font-size: 16px;&quot;&gt;Image Input (k)&lt;/font&gt;" style="text;html=1;align=center;verticalAlign=middle;whiteSpace=wrap;rounded=0;" vertex="1" parent="1">
          <mxGeometry x="240" y="490" width="130" height="30" as="geometry" />
        </mxCell>
        <mxCell id="YGUKI9yoPXGlncxe4voU-50" value="&lt;font style=&quot;font-size: 16px;&quot;&gt;Image Input (k+1)&lt;/font&gt;" style="text;html=1;align=center;verticalAlign=middle;whiteSpace=wrap;rounded=0;" vertex="1" parent="1">
          <mxGeometry x="730" y="490" width="130" height="30" as="geometry" />
        </mxCell>
        <mxCell id="YGUKI9yoPXGlncxe4voU-51" value="" style="endArrow=none;dashed=1;html=1;rounded=0;strokeColor=#FF8000;strokeWidth=2;" edge="1" parent="1">
          <mxGeometry width="50" height="50" relative="1" as="geometry">
            <mxPoint x="110" y="540" as="sourcePoint" />
            <mxPoint x="110" y="80" as="targetPoint" />
          </mxGeometry>
        </mxCell>
        <mxCell id="YGUKI9yoPXGlncxe4voU-52" value="" style="endArrow=none;dashed=1;html=1;rounded=0;fillColor=#ffe6cc;strokeColor=#FF8000;strokeWidth=2;" edge="1" parent="1">
          <mxGeometry width="50" height="50" relative="1" as="geometry">
            <mxPoint x="110" y="80" as="sourcePoint" />
            <mxPoint x="610" y="80" as="targetPoint" />
          </mxGeometry>
        </mxCell>
        <mxCell id="YGUKI9yoPXGlncxe4voU-53" value="" style="endArrow=none;dashed=1;html=1;rounded=0;fillColor=#f8cecc;strokeColor=#FF8000;strokeWidth=2;" edge="1" parent="1">
          <mxGeometry width="50" height="50" relative="1" as="geometry">
            <mxPoint x="610" y="540" as="sourcePoint" />
            <mxPoint x="610" y="80" as="targetPoint" />
          </mxGeometry>
        </mxCell>
        <mxCell id="YGUKI9yoPXGlncxe4voU-54" value="" style="endArrow=none;dashed=1;html=1;rounded=0;fillColor=#f8cecc;strokeColor=#FF8000;strokeWidth=2;" edge="1" parent="1">
          <mxGeometry width="50" height="50" relative="1" as="geometry">
            <mxPoint x="110" y="540" as="sourcePoint" />
            <mxPoint x="610" y="540" as="targetPoint" />
          </mxGeometry>
        </mxCell>
        <mxCell id="YGUKI9yoPXGlncxe4voU-55" value="&lt;b&gt;&lt;font style=&quot;font-size: 16px;&quot;&gt;Main Structure&lt;/font&gt;&lt;/b&gt;" style="text;html=1;align=center;verticalAlign=middle;whiteSpace=wrap;rounded=0;" vertex="1" parent="1">
          <mxGeometry x="260" y="550" width="190" height="30" as="geometry" />
        </mxCell>
      </root>
    </mxGraphModel>
  </diagram>
</mxfile>
